<?xml version="1.0" encoding="UTF-8"?>
<!-- Created with Grafika (https://www.grafika.cc/) -->
<svg xmlns="http://www.w3.org/2000/svg" xmlns:svg="http://www.w3.org/2000/svg" xmlns:xlink="http://www.w3.org/1999/xlink" width="512" height="512" viewBox="0 0 512 512" preserveAspectRatio="xMidYMid meet">
	<g id="Ícone Neologista2">
		<rect x="0" y="0" width="512" height="512" style="fill:#000000;" />
		<path d="M334.87713623,180.607940674 L334.87713623,310.748413086 C334.87713623,318.168701172 334.87713623,322.449645996 332.213409424,322.449645996 C329.074035645,322.449645996 324.793060303,315.409881592 313.472229004,301.044952393 L179.810333252,128.761062622 L127.201782227,128 C124.91859436,130.283157349 124.91859436,138.464508057 127.201782227,140.842819214 C143.94519043,141.984390259 155.64654541,155.683395386 158.024871826,165.767364502 L158.024871826,328.252685547 C158.024871826,362.975830078 151.365570068,365.259002686 124.062393188,368.017822266 C121.779205322,370.396118164 121.779205322,378.577484131 124.062393188,380.860626221 C143.184112549,380.480102539 150.604492188,380.099578857 167.728439331,380.099578857 C184.471862793,380.099578857 191.511688232,380.480102539 211.013961792,380.860626221 C213.297164917,378.577484131 213.297164917,370.396118164 211.013961792,368.017822266 C183.710784912,365.259002686 177.051483154,363.736907959 177.051483154,328.252685547 L177.051483154,209.052398682 C177.051483154,195.829071045 177.051483154,189.930892944 180.190872192,189.930892944 C182.569198608,189.930892944 186.85017395,194.21182251 193.509490967,202.773681641 L329.454559326,374.677062988 C333.735565186,380.480102539 338.777618408,384 345.056396484,384 C350.478973389,384 353.99887085,379.338531494 353.99887085,371.918243408 L353.99887085,180.607940674 C353.99887085,145.884811401 360.658203125,143.601638794 387.866271973,140.842819214 C390.244567871,138.464508057 390.244567871,130.283157349 387.866271973,128 C368.839630127,128.380554199 361.419250488,128.761062622 344.295318604,128.761062622 C327.5519104,128.761062622 320.512084961,128.380554199 301.009796143,128 C298.631469727,130.283157349 298.631469727,138.464508057 301.009796143,140.842819214 C328.312988281,143.601638794 334.87713623,145.123764038 334.87713623,180.607940674 Z" style="fill:#FFFFFF;" />
	</g>
</svg>